<svg xmlns="http://www.w3.org/2000/svg" version="1.1" xmlns:xlink="http://www.w3.org/1999/xlink" xmlns:svgjs="http://svgjs.dev/svgjs" viewBox="0 0 800 800"><defs><linearGradient x1="50%" y1="0%" x2="50%" y2="100%" id="gggyrate-grad"><stop stop-color="hsl(0, 0%, 0%)" stop-opacity="1" offset="0%"></stop><stop stop-color="hsl(178, 87%, 70%)" stop-opacity="1" offset="100%"></stop></linearGradient></defs><g stroke-width="5" stroke="url(#gggyrate-grad)" fill="none"><path d="M400.0000305175781 -19.15570068359375L763.0000537130439 190.4221548070758V609.5778657884148L400.0000305175781 819.1557212790844L37.00000732211237 609.5778657884148V190.4221548070758L400.0000305175781 -19.15570068359375Z " transform="rotate(44, 400, 400)"></path><path d="M400.0000305175781 -0.1031494140625L746.5000526587046 199.94843991794022V600.0516185819456L400.0000305175781 800.1032079139484L53.50000837645172 600.0516185819456V199.94843991794022L400.0000305175781 -0.1031494140625Z " transform="rotate(42, 400, 400)"></path><path d="M400.0000305175781 18.9493408203125L730.0000516043651 209.4746639936484V590.5253103403203L400.0000305175781 781.0506335136562L70.00000943079107 590.5253103403203V209.4746639936484L400.0000305175781 18.9493408203125Z " transform="rotate(40, 400, 400)"></path><path d="M400.0000305175781 38.00189208984375L713.5000505500258 219.00094910451287V580.9990631338511L400.0000305175781 761.9981201485202L86.50001048513042 580.9990631338511V219.00094910451287L400.0000305175781 38.00189208984375Z " transform="rotate(38, 400, 400)"></path><path d="M400.0000305175781 57.054412841796875L697.0000494956864 228.52720369779922V571.4727854098039L400.0000305175781 742.9455762658063L103.00001153946977 571.4727854098039V228.52720369779922L400.0000305175781 57.054412841796875Z " transform="rotate(36, 400, 400)"></path><path d="M400.0000305175781 76.10696411132812L680.5000484413472 238.0534888086637V561.9465382033347L400.0000305175781 723.8930629006703L119.50001259380912 561.9465382033347V238.0534888086637L400.0000305175781 76.10696411132812Z " transform="rotate(34, 400, 400)"></path><path d="M400.0000305175781 95.15948486328125L664.0000473870078 247.57974340195V552.4202604792875L400.0000305175781 704.8405190179562L136.00001364814847 552.4202604792875V247.57974340195L400.0000305175781 95.15948486328125Z " transform="rotate(32, 400, 400)"></path><path d="M400.00001525878906 114.21200561523438L647.5000310738794 257.1059979952363V542.8939827552402L400.00001525878906 685.7879751352422L152.49999944369875 542.8939827552402V257.1059979952363L400.00001525878906 114.21200561523438Z " transform="rotate(30, 400, 400)"></path><path d="M400 133.26455688476562L631.0000147607509 266.6322831061008V533.3677355487711L400 666.7354617701062L168.99998523924904 533.3677355487711V266.6322831061008L400 133.26455688476562Z " transform="rotate(28, 400, 400)"></path><path d="M400 152.31707763671875L614.5000137064116 276.15853769938707V523.8414578247238L400 647.682917887392L185.4999862935884 523.8414578247238V276.15853769938707L400 152.31707763671875Z " transform="rotate(26, 400, 400)"></path><path d="M400 171.36959838867188L598.0000126520722 285.6847922926735V514.3151801006766L400 628.6303740046782L201.99998734792774 514.3151801006766V285.6847922926735L400 171.36959838867188Z " transform="rotate(24, 400, 400)"></path><path d="M400 190.42214965820312L581.500011597733 295.2110774035379V504.7889328942074L400 609.5778606395422L218.4999884022671 504.7889328942074V295.2110774035379L400 190.42214965820312Z " transform="rotate(22, 400, 400)"></path><path d="M400 209.47467041015625L565.0000105433935 304.7373319968242V495.2626551701601L400 590.525316756828L234.99998945660644 495.2626551701601V304.7373319968242L400 209.47467041015625Z " transform="rotate(20, 400, 400)"></path><path d="M400 228.5272216796875L548.5000094890542 314.2636171076887V485.736407963691L400 571.4728033916922L251.49999051094585 485.736407963691V314.2636171076887L400 228.5272216796875Z " transform="rotate(18, 400, 400)"></path><path d="M400 247.57974243164062L532.0000084347148 323.789871700975V476.2101302396438L400 552.4202595089781L267.9999915652852 476.2101302396438V323.789871700975L400 247.57974243164062Z " transform="rotate(16, 400, 400)"></path><path d="M400 266.63226318359375L515.5000073803755 333.3161262942613V466.68385251559647L400 533.367715626264L284.49999261962455 466.68385251559647V333.3161262942613L400 266.63226318359375Z " transform="rotate(14, 400, 400)"></path><path d="M400 285.68479919433594L499.0000063260361 342.84239614633674V457.1575900503383L400 514.3151870023391L300.9999936739639 457.1575900503383V342.84239614633674L400 285.68479919433594Z " transform="rotate(12, 400, 400)"></path><path d="M400 304.7373352050781L482.50000527169675 352.3686659984121V447.63132758508004L400 495.262658378414L317.49999472830325 447.63132758508004V352.3686659984121L400 304.7373352050781Z " transform="rotate(10, 400, 400)"></path><path d="M400 323.7898712158203L466.0000042173574 361.8949358504875V438.1050651198219L400 476.21012975448906L333.9999957826426 438.1050651198219V361.8949358504875L400 323.7898712158203Z " transform="rotate(8, 400, 400)"></path><path d="M400 342.8424072265625L449.50000316301805 371.4212057025629V428.5788026545637L400 457.1576011305641L350.49999683698195 428.5788026545637V371.4212057025629L400 342.8424072265625Z " transform="rotate(6, 400, 400)"></path><path d="M400 361.8949279785156L433.0000021086787 380.9474602958492V419.0525249305164L400 438.10505724785L366.9999978913213 419.0525249305164V380.9474602958492L400 361.8949279785156Z " transform="rotate(4, 400, 400)"></path><path d="M400 380.9474639892578L416.50000105433935 390.4737301479246V409.5262624652582L400 419.052528623925L383.49999894566065 409.5262624652582V390.4737301479246L400 380.9474639892578Z " transform="rotate(2, 400, 400)"></path></g></svg>