<svg xmlns="http://www.w3.org/2000/svg" version="1.1" xmlns:xlink="http://www.w3.org/1999/xlink" xmlns:svgjs="http://svgjs.dev/svgjs" viewBox="0 0 800 800"><g fill="hsl(158, 100%, 67%)"><circle r="0.5" cx="405" cy="400"></circle><circle r="0.5" cx="405" cy="403"></circle><circle r="0.5" cx="402" cy="406"></circle><circle r="0.5" cx="398" cy="407"></circle><circle r="0.5" cx="395" cy="405"></circle><circle r="0.5" cx="392" cy="401"></circle><circle r="0.5" cx="392" cy="396"></circle><circle r="0.5" cx="395" cy="392"></circle><circle r="0.5" cx="401" cy="390"></circle><circle r="0.5" cx="407" cy="392"></circle><circle r="0.5" cx="411" cy="397"></circle><circle r="0.5" cx="411" cy="404"></circle><circle r="0.5" cx="407" cy="410"></circle><circle r="0.5" cx="401" cy="413"></circle><circle r="0.5" cx="393" cy="411"></circle><circle r="0.5" cx="387" cy="406"></circle><circle r="0.5" cx="386" cy="397"></circle><circle r="0.5" cx="389" cy="389"></circle><circle r="0.5" cx="397" cy="385"></circle><circle r="0.5" cx="406" cy="385"></circle><circle r="0.5" cx="414" cy="391"></circle><circle r="0.5" cx="418" cy="401"></circle><circle r="0.5" cx="415" cy="411"></circle><circle r="0.5" cx="406" cy="418"></circle><circle r="0.5" cx="395" cy="419"></circle><circle r="0.5" cx="385" cy="413"></circle><circle r="0.5" cx="380" cy="402"></circle><circle r="0.5" cx="381" cy="390"></circle><circle r="0.5" cx="390" cy="381"></circle><circle r="0.5" cx="403" cy="378"></circle><circle r="0.5" cx="415" cy="383"></circle><circle r="0.5" cx="423" cy="394"></circle><circle r="0.5" cx="423" cy="408"></circle><circle r="0.5" cx="414" cy="420"></circle><circle r="0.5" cx="401" cy="425"></circle><circle r="1" cx="386" cy="422"></circle><circle r="1" cx="375" cy="410"></circle><circle r="1" cx="373" cy="394"></circle><circle r="1" cx="381" cy="380"></circle><circle r="1" cx="395" cy="372"></circle><circle r="1" cx="412" cy="374"></circle><circle r="1" cx="425" cy="385"></circle><circle r="1" cx="430" cy="402"></circle><circle r="1" cx="424" cy="419"></circle><circle r="1" cx="409" cy="430"></circle><circle r="1" cx="391" cy="431"></circle><circle r="1" cx="375" cy="420"></circle><circle r="1" cx="367" cy="402"></circle><circle r="1" cx="371" cy="383"></circle><circle r="1" cx="385" cy="369"></circle><circle r="1" cx="405" cy="365"></circle><circle r="1" cx="424" cy="374"></circle><circle r="1" cx="435" cy="392"></circle><circle r="1" cx="434" cy="414"></circle><circle r="1" cx="421" cy="431"></circle><circle r="1" cx="399" cy="438"></circle><circle r="1" cx="378" cy="432"></circle><circle r="1" cx="363" cy="414"></circle><circle r="1" cx="361" cy="390"></circle><circle r="1" cx="373" cy="370"></circle><circle r="1" cx="395" cy="359"></circle><circle r="1" cx="419" cy="363"></circle><circle r="1" cx="437" cy="380"></circle><circle r="1" cx="443" cy="404"></circle><circle r="1" cx="433" cy="428"></circle><circle r="1" cx="412" cy="442"></circle><circle r="1" cx="386" cy="442"></circle><circle r="1" cx="364" cy="427"></circle><circle r="1" cx="354" cy="402"></circle><circle r="1" cx="361" cy="375"></circle><circle r="1" cx="381" cy="357"></circle><circle r="1" cx="409" cy="353"></circle><circle r="1" cx="434" cy="366"></circle><circle r="1" cx="448" cy="391"></circle><circle r="1" cx="445" cy="420"></circle><circle r="1" cx="426" cy="443"></circle><circle r="1" cx="398" cy="451"></circle><circle r="1" cx="369" cy="441"></circle><circle r="1" cx="351" cy="416"></circle><circle r="1" cx="350" cy="386"></circle><circle r="1" cx="366" cy="359"></circle><circle r="1" cx="395" cy="347"></circle><circle r="1" cx="426" cy="353"></circle><circle r="1" cx="449" cy="375"></circle><circle r="1" cx="455" cy="407"></circle><circle r="1" cx="442" cy="438"></circle><circle r="1" cx="413" cy="455"></circle><circle r="1" cx="380" cy="453"></circle><circle r="1" cx="353" cy="433"></circle><circle r="1" cx="342" cy="400"></circle><circle r="1" cx="351" cy="367"></circle><circle r="1" cx="378" cy="345"></circle><circle r="1" cx="413" cy="341"></circle><circle r="1" cx="445" cy="359"></circle><circle r="1" cx="461" cy="391"></circle><circle r="1" cx="456" cy="427"></circle><circle r="1" cx="431" cy="454"></circle><circle r="1" cx="395" cy="463"></circle><circle r="1" cx="360" cy="450"></circle><circle r="1" cx="338" cy="418"></circle><circle r="1" cx="338" cy="380"></circle><circle r="1" cx="360" cy="348"></circle><circle r="1" cx="396" cy="334"></circle><circle r="1" cx="434" cy="343"></circle><circle r="1.5" cx="461" cy="372"></circle><circle r="1.5" cx="467" cy="411"></circle><circle r="1.5" cx="449" cy="448"></circle><circle r="1.5" cx="414" cy="468"></circle><circle r="1.5" cx="373" cy="464"></circle><circle r="1.5" cx="341" cy="438"></circle><circle r="1.5" cx="329" cy="398"></circle><circle r="1.5" cx="342" cy="358"></circle><circle r="1.5" cx="376" cy="332"></circle><circle r="1.5" cx="418" cy="330"></circle><circle r="1.5" cx="455" cy="352"></circle><circle r="1.5" cx="474" cy="392"></circle><circle r="1.5" cx="466" cy="435"></circle><circle r="1.5" cx="435" cy="466"></circle><circle r="1.5" cx="391" cy="475"></circle><circle r="1.5" cx="350" cy="458"></circle><circle r="1.5" cx="326" cy="420"></circle><circle r="1.5" cx="327" cy="374"></circle><circle r="1.5" cx="354" cy="337"></circle><circle r="1.5" cx="398" cy="321"></circle><circle r="1.5" cx="443" cy="333"></circle><circle r="1.5" cx="474" cy="369"></circle><circle r="1.5" cx="479" cy="416"></circle><circle r="1.5" cx="456" cy="458"></circle><circle r="1.5" cx="414" cy="481"></circle><circle r="1.5" cx="366" cy="475"></circle><circle r="1.5" cx="329" cy="443"></circle><circle r="1.5" cx="317" cy="395"></circle><circle r="1.5" cx="333" cy="348"></circle><circle r="1.5" cx="374" cy="319"></circle><circle r="1.5" cx="424" cy="318"></circle><circle r="1.5" cx="467" cy="346"></circle><circle r="1.5" cx="486" cy="393"></circle><circle r="1.5" cx="476" cy="443"></circle><circle r="1.5" cx="438" cy="479"></circle><circle r="1.5" cx="387" cy="487"></circle><circle r="1.5" cx="339" cy="465"></circle><circle r="1.5" cx="313" cy="420"></circle><circle r="1.5" cx="316" cy="367"></circle><circle r="1.5" cx="349" cy="325"></circle><circle r="1.5" cx="401" cy="309"></circle><circle r="1.5" cx="452" cy="324"></circle><circle r="1.5" cx="487" cy="367"></circle><circle r="1.5" cx="491" cy="422"></circle><circle r="1.5" cx="463" cy="470"></circle><circle r="1.5" cx="413" cy="494"></circle><circle r="1.5" cx="357" cy="485"></circle><circle r="1.5" cx="316" cy="446"></circle><circle r="1.5" cx="304" cy="391"></circle><circle r="1.5" cx="326" cy="338"></circle><circle r="1.5" cx="373" cy="306"></circle><circle r="1.5" cx="431" cy="307"></circle><circle r="1.5" cx="479" cy="341"></circle><circle r="1.5" cx="499" cy="395"></circle><circle r="1.5" cx="485" cy="452"></circle><circle r="1.5" cx="441" cy="492"></circle><circle r="1.5" cx="382" cy="499"></circle><circle r="1.5" cx="328" cy="472"></circle><circle r="1.5" cx="300" cy="419"></circle><circle r="1.5" cx="306" cy="359"></circle><circle r="1.5" cx="345" cy="312"></circle><circle r="1.5" cx="404" cy="296"></circle><circle r="1.5" cx="462" cy="316"></circle><circle r="1.5" cx="499" cy="366"></circle><circle r="1.5" cx="502" cy="428"></circle><circle r="1.5" cx="469" cy="481"></circle><circle r="1.5" cx="411" cy="506"></circle><circle r="1.5" cx="349" cy="495"></circle><circle r="2" cx="304" cy="449"></circle><circle r="2" cx="292" cy="386"></circle><circle r="2" cx="318" cy="327"></circle><circle r="2" cx="373" cy="293"></circle><circle r="2" cx="439" cy="296"></circle><circle r="2" cx="491" cy="336"></circle><circle r="2" cx="512" cy="398"></circle><circle r="2" cx="494" cy="462"></circle><circle r="2" cx="442" cy="505"></circle><circle r="2" cx="376" cy="511"></circle><circle r="2" cx="317" cy="478"></circle><circle r="2" cx="287" cy="418"></circle><circle r="2" cx="296" cy="350"></circle><circle r="2" cx="342" cy="300"></circle><circle r="2" cx="409" cy="284"></circle><circle r="2" cx="473" cy="308"></circle><circle r="2" cx="513" cy="365"></circle><circle r="2" cx="513" cy="435"></circle><circle r="2" cx="474" cy="493"></circle><circle r="2" cx="408" cy="519"></circle><circle r="2" cx="339" cy="504"></circle><circle r="2" cx="291" cy="451"></circle><circle r="2" cx="280" cy="381"></circle><circle r="2" cx="312" cy="316"></circle><circle r="2" cx="374" cy="280"></circle><circle r="2" cx="447" cy="286"></circle><circle r="2" cx="504" cy="332"></circle><circle r="2" cx="524" cy="402"></circle><circle r="2" cx="502" cy="473"></circle><circle r="2" cx="443" cy="518"></circle><circle r="2" cx="369" cy="522"></circle><circle r="2" cx="305" cy="484"></circle><circle r="2" cx="274" cy="416"></circle><circle r="2" cx="286" cy="341"></circle><circle r="2" cx="339" cy="287"></circle><circle r="2" cx="414" cy="272"></circle><circle r="2" cx="484" cy="301"></circle><circle r="2" cx="526" cy="366"></circle><circle r="2" cx="524" cy="443"></circle><circle r="2" cx="478" cy="506"></circle><circle r="2" cx="405" cy="532"></circle><circle r="2" cx="329" cy="512"></circle><circle r="2" cx="277" cy="453"></circle><circle r="2" cx="269" cy="374"></circle><circle r="2" cx="306" cy="304"></circle><circle r="2" cx="376" cy="267"></circle><circle r="2" cx="456" cy="276"></circle><circle r="2" cx="517" cy="329"></circle><circle r="2" cx="537" cy="407"></circle><circle r="2" cx="509" cy="484"></circle><circle r="2" cx="443" cy="531"></circle><circle r="2" cx="361" cy="533"></circle><circle r="2" cx="292" cy="489"></circle><circle r="2" cx="261" cy="412"></circle><circle r="2" cx="277" cy="331"></circle><circle r="2" cx="337" cy="273"></circle><circle r="2" cx="420" cy="260"></circle><circle r="2" cx="496" cy="295"></circle><circle r="2" cx="539" cy="367"></circle><circle r="2" cx="534" cy="452"></circle><circle r="2" cx="482" cy="519"></circle><circle r="2" cx="400" cy="545"></circle><circle r="2" cx="318" cy="520"></circle><circle r="2" cx="264" cy="453"></circle><circle r="2" cx="257" cy="367"></circle><circle r="2" cx="300" cy="292"></circle><circle r="2" cx="379" cy="254"></circle><circle r="2" cx="466" cy="267"></circle><circle r="2" cx="530" cy="327"></circle><circle r="2.5" cx="549" cy="413"></circle><circle r="2.5" cx="516" cy="495"></circle><circle r="2.5" cx="442" cy="545"></circle><circle r="2.5" cx="353" cy="544"></circle><circle r="2.5" cx="279" cy="493"></circle><circle r="2.5" cx="248" cy="408"></circle><circle r="2.5" cx="269" cy="321"></circle><circle r="2.5" cx="336" cy="260"></circle><circle r="2.5" cx="427" cy="248"></circle><circle r="2.5" cx="508" cy="289"></circle><circle r="2.5" cx="553" cy="370"></circle><circle r="2.5" cx="544" cy="461"></circle><circle r="2.5" cx="484" cy="532"></circle><circle r="2.5" cx="395" cy="557"></circle><circle r="2.5" cx="307" cy="527"></circle><circle r="2.5" cx="250" cy="453"></circle><circle r="2.5" cx="246" cy="359"></circle><circle r="2.5" cx="296" cy="279"></circle><circle r="2.5" cx="383" cy="241"></circle><circle r="2.5" cx="476" cy="258"></circle><circle r="2.5" cx="543" cy="325"></circle><circle r="2.5" cx="561" cy="419"></circle><circle r="2.5" cx="522" cy="507"></circle><circle r="2.5" cx="440" cy="558"></circle><circle r="2.5" cx="344" cy="554"></circle><circle r="2.5" cx="266" cy="496"></circle><circle r="2.5" cx="235" cy="404"></circle><circle r="2.5" cx="261" cy="309"></circle><circle r="2.5" cx="336" cy="246"></circle><circle r="2.5" cx="434" cy="237"></circle><circle r="2.5" cx="521" cy="284"></circle><circle r="2.5" cx="566" cy="373"></circle><circle r="2.5" cx="553" cy="471"></circle><circle r="2.5" cx="486" cy="546"></circle><circle r="2.5" cx="389" cy="570"></circle><circle r="2.5" cx="295" cy="534"></circle><circle r="2.5" cx="237" cy="451"></circle><circle r="2.5" cx="236" cy="350"></circle><circle r="2.5" cx="292" cy="265"></circle><circle r="2.5" cx="387" cy="227"></circle><circle r="2.5" cx="487" cy="250"></circle><circle r="2.5" cx="557" cy="325"></circle><circle r="2.5" cx="573" cy="427"></circle><circle r="2.5" cx="528" cy="520"></circle><circle r="2.5" cx="438" cy="572"></circle><circle r="2.5" cx="334" cy="564"></circle><circle r="2.5" cx="253" cy="498"></circle><circle r="2.5" cx="222" cy="398"></circle><circle r="2.5" cx="254" cy="297"></circle><circle r="2.5" cx="337" cy="232"></circle><circle r="2.5" cx="443" cy="226"></circle><circle r="2.5" cx="534" cy="280"></circle><circle r="2.5" cx="579" cy="377"></circle><circle r="2.5" cx="562" cy="482"></circle><circle r="2.5" cx="487" cy="560"></circle><circle r="2.5" cx="382" cy="582"></circle><circle r="2.5" cx="282" cy="540"></circle><circle r="2.5" cx="223" cy="449"></circle><circle r="2.5" cx="226" cy="340"></circle><circle r="2.5" cx="289" cy="252"></circle><circle r="2.5" cx="392" cy="215"></circle><circle r="2.5" cx="499" cy="242"></circle><circle r="2.5" cx="571" cy="325"></circle><circle r="2.5" cx="584" cy="435"></circle><circle r="2.5" cx="533" cy="533"></circle><circle r="2.5" cx="434" cy="585"></circle><circle r="2.5" cx="323" cy="573"></circle><circle r="2.5" cx="239" cy="500"></circle><circle r="2.5" cx="210" cy="391"></circle><circle r="3" cx="247" cy="285"></circle><circle r="3" cx="339" cy="218"></circle><circle r="3" cx="452" cy="215"></circle><circle r="3" cx="548" cy="276"></circle><circle r="3" cx="593" cy="382"></circle><circle r="3" cx="570" cy="494"></circle><circle r="3" cx="487" cy="574"></circle><circle r="3" cx="374" cy="593"></circle><circle r="3" cx="269" cy="545"></circle><circle r="3" cx="209" cy="446"></circle><circle r="3" cx="216" cy="330"></circle><circle r="3" cx="287" cy="238"></circle><circle r="3" cx="398" cy="202"></circle><circle r="3" cx="511" cy="235"></circle><circle r="3" cx="585" cy="326"></circle><circle r="3" cx="595" cy="444"></circle><circle r="3" cx="537" cy="547"></circle><circle r="3" cx="430" cy="599"></circle><circle r="3" cx="312" cy="582"></circle><circle r="3" cx="224" cy="501"></circle><circle r="3" cx="198" cy="384"></circle><circle r="3" cx="242" cy="272"></circle><circle r="3" cx="341" cy="204"></circle><circle r="3" cx="462" cy="205"></circle><circle r="3" cx="562" cy="274"></circle><circle r="3" cx="606" cy="387"></circle><circle r="3" cx="577" cy="506"></circle><circle r="3" cx="487" cy="588"></circle><circle r="3" cx="365" cy="605"></circle><circle r="3" cx="255" cy="550"></circle><circle r="3" cx="195" cy="442"></circle><circle r="3" cx="207" cy="319"></circle><circle r="3" cx="286" cy="224"></circle><circle r="3" cx="405" cy="189"></circle><circle r="3" cx="524" cy="229"></circle><circle r="3" cx="599" cy="328"></circle><circle r="3" cx="606" cy="454"></circle><circle r="3" cx="540" cy="561"></circle><circle r="3" cx="425" cy="612"></circle><circle r="3" cx="300" cy="590"></circle><circle r="3" cx="210" cy="501"></circle><circle r="3" cx="186" cy="376"></circle><circle r="3" cx="237" cy="259"></circle><circle r="3" cx="345" cy="190"></circle><circle r="3" cx="473" cy="195"></circle><circle r="3" cx="576" cy="272"></circle><circle r="3" cx="619" cy="394"></circle><circle r="3" cx="584" cy="519"></circle><circle r="3" cx="485" cy="603"></circle><circle r="3" cx="356" cy="616"></circle><circle r="3" cx="241" cy="554"></circle><circle r="3" cx="182" cy="437"></circle><circle r="3" cx="198" cy="307"></circle><circle r="3" cx="285" cy="209"></circle><circle r="3" cx="413" cy="177"></circle><circle r="3" cx="537" cy="223"></circle><circle r="3" cx="614" cy="331"></circle><circle r="3" cx="616" cy="464"></circle><circle r="3" cx="542" cy="575"></circle><circle r="3" cx="419" cy="626"></circle><circle r="3" cx="288" cy="597"></circle><circle r="3" cx="195" cy="500"></circle><circle r="3" cx="174" cy="367"></circle><circle r="3" cx="232" cy="245"></circle><circle r="3" cx="349" cy="176"></circle><circle r="3" cx="484" cy="186"></circle><circle r="3" cx="591" cy="271"></circle><circle r="3" cx="631" cy="401"></circle><circle r="3.5" cx="591" cy="532"></circle><circle r="3.5" cx="483" cy="617"></circle><circle r="3.5" cx="346" cy="627"></circle><circle r="3.5" cx="227" cy="557"></circle><circle r="3.5" cx="168" cy="432"></circle><circle r="3.5" cx="190" cy="295"></circle><circle r="3.5" cx="286" cy="194"></circle><circle r="3.5" cx="422" cy="165"></circle><circle r="3.5" cx="551" cy="218"></circle><circle r="3.5" cx="628" cy="335"></circle><circle r="3.5" cx="626" cy="475"></circle><circle r="3.5" cx="544" cy="590"></circle><circle r="3.5" cx="412" cy="639"></circle><circle r="3.5" cx="274" cy="604"></circle><circle r="3.5" cx="181" cy="498"></circle><circle r="3.5" cx="163" cy="357"></circle><circle r="3.5" cx="228" cy="230"></circle><circle r="3.5" cx="354" cy="162"></circle><circle r="3.5" cx="497" cy="177"></circle><circle r="3.5" cx="606" cy="271"></circle><circle r="3.5" cx="644" cy="409"></circle><circle r="3.5" cx="596" cy="546"></circle><circle r="3.5" cx="480" cy="632"></circle><circle r="3.5" cx="335" cy="637"></circle><circle r="3.5" cx="212" cy="559"></circle><circle r="3.5" cx="154" cy="425"></circle><circle r="3.5" cx="183" cy="282"></circle><circle r="3.5" cx="287" cy="179"></circle><circle r="3.5" cx="431" cy="153"></circle><circle r="3.5" cx="566" cy="214"></circle><circle r="3.5" cx="642" cy="340"></circle><circle r="3.5" cx="635" cy="487"></circle><circle r="3.5" cx="545" cy="605"></circle><circle r="3.5" cx="404" cy="652"></circle><circle r="3.5" cx="261" cy="610"></circle><circle r="3.5" cx="166" cy="495"></circle><circle r="3.5" cx="152" cy="346"></circle><circle r="3.5" cx="226" cy="215"></circle><circle r="3.5" cx="360" cy="149"></circle><circle r="3.5" cx="509" cy="169"></circle><circle r="3.5" cx="621" cy="271"></circle><circle r="3.5" cx="656" cy="419"></circle><circle r="3.5" cx="601" cy="560"></circle><circle r="3.5" cx="476" cy="646"></circle><circle r="3.5" cx="323" cy="647"></circle><circle r="3.5" cx="197" cy="561"></circle><circle r="3.5" cx="141" cy="418"></circle><circle r="3.5" cx="176" cy="268"></circle><circle r="3.5" cx="289" cy="164"></circle><circle r="3.5" cx="442" cy="142"></circle><circle r="3.5" cx="580" cy="210"></circle><circle r="3.5" cx="657" cy="345"></circle><circle r="3.5" cx="643" cy="500"></circle><circle r="3.5" cx="545" cy="620"></circle><circle r="3.5" cx="395" cy="664"></circle><circle r="3.5" cx="246" cy="616"></circle><circle r="3.5" cx="151" cy="492"></circle><circle r="3.5" cx="142" cy="335"></circle><circle r="3.5" cx="224" cy="200"></circle><circle r="3.5" cx="367" cy="135"></circle><circle r="3.5" cx="523" cy="162"></circle><circle r="3.5" cx="636" cy="273"></circle><circle r="3.5" cx="667" cy="429"></circle><circle r="3.5" cx="605" cy="575"></circle><circle r="3.5" cx="471" cy="661"></circle><circle r="3.5" cx="311" cy="656"></circle><circle r="3.5" cx="182" cy="561"></circle><circle r="3.5" cx="128" cy="410"></circle><circle r="3.5" cx="170" cy="254"></circle><circle r="4" cx="292" cy="149"></circle><circle r="4" cx="453" cy="131"></circle><circle r="4" cx="596" cy="208"></circle><circle r="4" cx="671" cy="352"></circle><circle r="4" cx="651" cy="513"></circle><circle r="4" cx="544" cy="636"></circle><circle r="4" cx="386" cy="676"></circle><circle r="4" cx="232" cy="620"></circle><circle r="4" cx="136" cy="487"></circle><circle r="4" cx="132" cy="323"></circle><circle r="4" cx="222" cy="185"></circle><circle r="4" cx="375" cy="121"></circle><circle r="4" cx="537" cy="155"></circle><circle r="4" cx="652" cy="275"></circle><circle r="4" cx="679" cy="439"></circle><circle r="4" cx="608" cy="590"></circle><circle r="4" cx="465" cy="675"></circle><circle r="4" cx="298" cy="664"></circle><circle r="4" cx="166" cy="561"></circle><circle r="4" cx="115" cy="400"></circle><circle r="4" cx="164" cy="239"></circle><circle r="4" cx="296" cy="134"></circle><circle r="4" cx="465" cy="121"></circle><circle r="4" cx="611" cy="206"></circle><circle r="4" cx="685" cy="359"></circle><circle r="4" cx="659" cy="527"></circle><circle r="4" cx="542" cy="651"></circle><circle r="4" cx="375" cy="688"></circle><circle r="4" cx="216" cy="624"></circle><circle r="4" cx="121" cy="482"></circle><circle r="4" cx="123" cy="310"></circle><circle r="4" cx="222" cy="169"></circle><circle r="4" cx="384" cy="108"></circle><circle r="4" cx="552" cy="149"></circle><circle r="4" cx="667" cy="279"></circle><circle r="4" cx="690" cy="451"></circle><circle r="4" cx="611" cy="606"></circle><circle r="4" cx="458" cy="690"></circle><circle r="4" cx="284" cy="672"></circle><circle r="4" cx="150" cy="560"></circle><circle r="4" cx="103" cy="391"></circle><circle r="4" cx="160" cy="224"></circle><circle r="4" cx="301" cy="119"></circle><circle r="4" cx="477" cy="111"></circle><circle r="4" cx="627" cy="205"></circle><circle r="4" cx="698" cy="367"></circle><circle r="4" cx="665" cy="542"></circle><circle r="4" cx="539" cy="667"></circle><circle r="4" cx="364" cy="700"></circle><circle r="4" cx="201" cy="628"></circle><circle r="4" cx="106" cy="475"></circle><circle r="4" cx="114" cy="296"></circle><circle r="4" cx="223" cy="153"></circle><circle r="4" cx="393" cy="95"></circle><circle r="4" cx="567" cy="144"></circle><circle r="4" cx="683" cy="283"></circle><circle r="4" cx="700" cy="463"></circle><circle r="4" cx="613" cy="622"></circle><circle r="4" cx="450" cy="704"></circle><circle r="4" cx="270" cy="680"></circle><circle r="4" cx="134" cy="558"></circle><circle r="4" cx="91" cy="380"></circle><circle r="4" cx="156" cy="208"></circle><circle r="4" cx="307" cy="103"></circle><circle r="4" cx="491" cy="102"></circle><circle r="4" cx="644" cy="205"></circle><circle r="4" cx="712" cy="376"></circle><circle r="4" cx="671" cy="557"></circle><circle r="4" cx="536" cy="683"></circle><circle r="4.5" cx="352" cy="711"></circle><circle r="4.5" cx="184" cy="630"></circle><circle r="4.5" cx="92" cy="468"></circle><circle r="4.5" cx="106" cy="282"></circle><circle r="4.5" cx="224" cy="136"></circle><circle r="4.5" cx="404" cy="82"></circle><circle r="4.5" cx="583" cy="139"></circle><circle r="4.5" cx="698" cy="288"></circle><circle r="4.5" cx="710" cy="476"></circle><circle r="4.5" cx="613" cy="638"></circle><circle r="4.5" cx="442" cy="718"></circle><circle r="4.5" cx="255" cy="686"></circle><circle r="4.5" cx="118" cy="555"></circle><circle r="4.5" cx="79" cy="368"></circle><circle r="4.5" cx="153" cy="192"></circle><circle r="4.5" cx="313" cy="88"></circle><circle r="4.5" cx="505" cy="93"></circle><circle r="4.5" cx="660" cy="205"></circle><circle r="4.5" cx="725" cy="386"></circle><circle r="4.5" cx="677" cy="572"></circle><circle r="4.5" cx="531" cy="699"></circle><circle r="4.5" cx="339" cy="722"></circle><circle r="4.5" cx="168" cy="631"></circle><circle r="4.5" cx="77" cy="460"></circle><circle r="4.5" cx="99" cy="267"></circle><circle r="4.5" cx="226" cy="120"></circle><circle r="4.5" cx="415" cy="70"></circle><circle r="4.5" cx="599" cy="136"></circle><circle r="4.5" cx="714" cy="294"></circle><circle r="4.5" cx="720" cy="490"></circle><circle r="4.5" cx="613" cy="655"></circle><circle r="4.5" cx="432" cy="732"></circle><circle r="4.5" cx="239" cy="692"></circle><circle r="4.5" cx="101" cy="551"></circle><circle r="4.5" cx="68" cy="356"></circle><circle r="4.5" cx="151" cy="176"></circle><circle r="4.5" cx="321" cy="73"></circle><circle r="4.5" cx="519" cy="85"></circle><circle r="4.5" cx="677" cy="207"></circle><circle r="4.5" cx="738" cy="397"></circle><circle r="4.5" cx="681" cy="589"></circle><circle r="4.5" cx="526" cy="715"></circle><circle r="4.5" cx="326" cy="732"></circle><circle r="4.5" cx="151" cy="632"></circle><circle r="4.5" cx="63" cy="451"></circle><circle r="4.5" cx="92" cy="252"></circle><circle r="4.5" cx="230" cy="103"></circle><circle r="4.5" cx="427" cy="58"></circle><circle r="4.5" cx="616" cy="133"></circle><circle r="4.5" cx="729" cy="301"></circle><circle r="4.5" cx="728" cy="504"></circle><circle r="4.5" cx="612" cy="672"></circle><circle r="4.5" cx="422" cy="745"></circle><circle r="4.5" cx="223" cy="698"></circle><circle r="4.5" cx="85" cy="546"></circle><circle r="4.5" cx="57" cy="342"></circle><circle r="4.5" cx="149" cy="159"></circle><circle r="4.5" cx="329" cy="58"></circle><circle r="4.5" cx="535" cy="78"></circle><circle r="4.5" cx="694" cy="210"></circle><circle r="4.5" cx="750" cy="409"></circle><circle r="4.5" cx="685" cy="605"></circle><circle r="4.5" cx="519" cy="731"></circle><circle r="4.5" cx="311" cy="741"></circle><circle r="4.5" cx="134" cy="632"></circle><circle r="4.5" cx="49" cy="441"></circle><circle r="4.5" cx="86" cy="235"></circle><circle r="4.5" cx="234" cy="87"></circle><circle r="4.5" cx="440" cy="47"></circle><circle r="5" cx="633" cy="131"></circle><circle r="5" cx="745" cy="309"></circle><circle r="5" cx="737" cy="520"></circle><circle r="5" cx="611" cy="689"></circle><circle r="5" cx="410" cy="758"></circle><circle r="5" cx="206" cy="702"></circle><circle r="5" cx="69" cy="540"></circle><circle r="5" cx="47" cy="328"></circle><circle r="5" cx="149" cy="141"></circle><circle r="5" cx="339" cy="44"></circle><circle r="5" cx="551" cy="71"></circle><circle r="5" cx="711" cy="213"></circle><circle r="5" cx="763" cy="421"></circle><circle r="5" cx="688" cy="623"></circle><circle r="5" cx="512" cy="747"></circle><circle r="5" cx="296" cy="750"></circle><circle r="5" cx="116" cy="631"></circle><circle r="5" cx="35" cy="430"></circle><circle r="5" cx="81" cy="219"></circle><circle r="5" cx="239" cy="70"></circle><circle r="5" cx="454" cy="36"></circle><circle r="5" cx="650" cy="129"></circle><circle r="5" cx="760" cy="318"></circle><circle r="5" cx="744" cy="536"></circle><circle r="5" cx="608" cy="707"></circle><circle r="5" cx="398" cy="771"></circle><circle r="5" cx="189" cy="706"></circle><circle r="5" cx="52" cy="533"></circle><circle r="5" cx="37" cy="314"></circle><circle r="5" cx="149" cy="124"></circle><circle r="5" cx="349" cy="30"></circle><circle r="5" cx="567" cy="65"></circle><circle r="5" cx="728" cy="218"></circle><circle r="5" cx="774" cy="435"></circle></g></svg>